<svg id="svg" version="1.1" xmlns="http://www.w3.org/2000/svg" xmlns:xlink="http://www.w3.org/1999/xlink" width="400" height="400" viewBox="0, 0, 400,400"><g id="svgg"><path id="path0" d="M234.900 186.299 C 231.765 186.367,229.200 186.563,229.200 186.735 C 229.200 187.092,232.453 190.976,233.813 192.243 C 234.310 192.706,235.208 193.862,235.807 194.811 C 236.406 195.761,237.060 196.731,237.259 196.969 C 237.458 197.206,238.127 198.210,238.745 199.200 C 239.363 200.190,240.682 202.260,241.676 203.800 C 242.670 205.340,243.871 207.320,244.346 208.200 C 244.820 209.080,245.371 210.070,245.570 210.400 C 245.950 211.032,247.235 213.915,248.777 217.600 C 249.284 218.810,249.830 220.610,249.992 221.600 C 250.546 224.992,249.799 224.744,259.868 224.879 C 268.236 224.992,268.905 225.054,269.433 225.776 C 270.124 226.723,270.254 238.778,269.586 240.026 C 269.179 240.787,267.912 240.800,194.082 240.800 L 118.992 240.800 118.459 239.946 C 117.690 238.715,117.683 226.897,118.451 225.666 L 119.000 224.785 154.400 224.810 C 194.372 224.839,191.676 225.055,190.770 221.895 C 190.566 221.186,190.400 220.193,190.400 219.689 C 190.400 214.581,181.060 204.007,174.934 202.179 C 172.789 201.539,169.600 198.687,169.600 197.409 C 169.600 196.923,168.558 196.500,168.348 196.900 C 168.319 196.955,168.184 199.646,168.048 202.881 C 167.734 210.321,168.377 209.768,159.861 209.938 C 150.958 210.116,151.850 211.444,151.600 197.639 L 151.400 186.600 120.200 186.480 C 103.040 186.414,87.694 186.475,86.097 186.614 L 83.195 186.869 83.297 214.734 L 83.400 242.600 85.750 242.721 C 87.159 242.794,88.340 243.082,88.698 243.441 C 89.027 243.770,89.839 244.148,90.502 244.280 C 91.190 244.418,91.788 244.831,91.895 245.244 C 91.999 245.641,92.696 246.168,93.443 246.414 C 94.832 246.872,96.911 248.670,97.337 249.780 C 97.468 250.121,97.990 250.400,98.498 250.400 C 99.024 250.400,99.876 250.917,100.475 251.600 C 101.054 252.260,101.883 252.800,102.317 252.800 C 102.770 252.800,103.196 253.141,103.316 253.600 C 103.434 254.053,103.862 254.400,104.301 254.400 C 105.324 254.400,108.000 257.022,108.000 258.024 C 108.000 258.715,108.190 258.779,109.586 258.556 C 111.014 258.327,111.219 258.404,111.636 259.320 C 111.892 259.880,112.515 260.443,113.022 260.570 C 113.581 260.710,113.995 261.156,114.074 261.701 C 114.174 262.398,114.427 262.574,115.201 262.484 C 116.715 262.309,118.000 262.743,118.000 263.428 C 118.000 263.766,118.540 264.230,119.200 264.460 C 119.860 264.690,120.400 265.044,120.400 265.246 C 120.400 265.448,121.016 265.907,121.769 266.266 C 122.522 266.625,123.218 267.227,123.317 267.605 C 123.426 268.020,124.071 268.399,124.948 268.564 C 125.747 268.714,126.400 269.011,126.400 269.225 C 126.400 269.438,127.030 269.913,127.800 270.281 C 128.570 270.648,129.200 271.176,129.200 271.455 C 129.200 271.734,129.804 272.129,130.541 272.333 C 132.127 272.771,133.949 274.246,134.425 275.478 C 134.650 276.061,135.241 276.446,136.182 276.623 C 137.012 276.779,137.600 277.124,137.600 277.454 C 137.600 277.765,138.043 278.188,138.584 278.394 C 139.125 278.600,139.935 279.135,140.384 279.584 C 140.833 280.033,141.545 280.400,141.967 280.400 C 143.151 280.400,144.000 280.830,144.000 281.429 C 144.000 281.727,144.405 282.184,144.900 282.444 C 145.395 282.704,145.936 283.147,146.103 283.428 C 146.270 283.710,147.026 284.145,147.784 284.395 C 148.542 284.645,149.273 285.198,149.408 285.625 C 149.543 286.051,149.912 286.400,150.227 286.400 C 150.542 286.400,151.123 286.723,151.517 287.117 C 151.912 287.512,152.812 288.073,153.517 288.366 C 154.317 288.697,154.800 289.180,154.800 289.649 C 154.800 290.200,155.093 290.402,155.900 290.406 C 157.197 290.413,157.764 290.744,158.117 291.700 C 158.259 292.085,158.646 292.400,158.977 292.400 C 159.308 292.400,159.856 292.935,160.194 293.589 C 160.724 294.614,160.973 294.745,161.996 294.541 C 163.020 294.336,163.240 294.453,163.596 295.390 C 163.824 295.988,164.362 296.569,164.792 296.682 C 165.222 296.794,165.682 297.227,165.814 297.643 C 165.975 298.152,166.427 298.400,167.194 298.400 C 168.852 298.400,169.600 298.784,169.600 299.635 C 169.600 300.093,169.974 300.479,170.562 300.626 C 171.091 300.759,171.609 301.193,171.713 301.590 C 171.838 302.065,172.439 302.404,173.465 302.577 C 174.536 302.758,175.150 303.118,175.414 303.721 C 175.626 304.204,176.187 304.655,176.659 304.722 C 177.132 304.790,177.610 305.195,177.722 305.622 C 177.839 306.072,178.269 306.400,178.741 306.400 C 179.234 306.400,179.768 306.834,180.091 307.500 C 180.535 308.414,180.844 308.579,181.913 308.474 C 182.973 308.371,183.267 308.524,183.577 309.340 C 183.785 309.885,184.324 310.449,184.777 310.593 C 185.311 310.762,185.600 311.196,185.600 311.827 C 185.600 312.713,185.760 312.800,187.392 312.800 C 188.971 312.800,189.215 312.919,189.436 313.800 C 189.616 314.518,189.957 314.800,190.643 314.800 C 191.403 314.800,191.600 315.011,191.600 315.825 L 191.600 316.850 197.100 316.725 C 201.133 316.633,202.613 316.467,202.650 316.100 C 202.678 315.825,202.722 315.420,202.750 315.200 C 202.778 314.980,203.160 314.800,203.600 314.800 C 204.187 314.800,204.400 314.533,204.400 313.800 C 204.400 312.956,204.587 312.800,205.600 312.800 C 206.613 312.800,206.800 312.644,206.800 311.800 C 206.800 311.000,207.000 310.800,207.800 310.800 C 208.600 310.800,208.800 310.600,208.800 309.800 C 208.800 308.884,208.948 308.800,210.573 308.800 C 212.211 308.800,212.357 308.716,212.473 307.700 C 212.588 306.704,212.752 306.600,214.200 306.600 C 215.555 306.600,215.820 306.462,215.928 305.700 C 216.009 305.126,216.332 304.800,216.818 304.800 C 217.260 304.800,217.840 304.296,218.200 303.600 C 218.586 302.854,219.133 302.400,219.648 302.400 C 220.126 302.400,220.559 302.077,220.675 301.634 C 220.785 301.213,221.301 300.761,221.821 300.631 C 222.341 300.500,223.250 299.945,223.841 299.397 C 224.433 298.848,225.267 298.400,225.696 298.400 C 226.138 298.400,226.565 298.055,226.684 297.600 C 226.799 297.160,227.219 296.800,227.618 296.800 C 228.016 296.800,228.697 296.349,229.130 295.798 C 229.563 295.247,230.467 294.687,231.137 294.553 C 231.979 294.384,232.394 294.044,232.478 293.454 C 232.559 292.888,232.937 292.556,233.600 292.468 C 234.150 292.396,235.012 291.901,235.516 291.368 C 236.020 290.836,236.691 290.400,237.007 290.400 C 237.323 290.400,237.876 289.950,238.237 289.400 C 238.685 288.716,239.256 288.400,240.046 288.400 C 240.681 288.400,241.200 288.231,241.200 288.025 C 241.200 287.304,244.210 284.766,245.353 284.524 C 245.988 284.389,246.589 283.963,246.690 283.577 C 246.799 283.162,247.414 282.774,248.198 282.627 C 248.962 282.484,249.788 281.973,250.150 281.420 C 250.496 280.892,251.143 280.345,251.589 280.203 C 252.035 280.062,252.400 279.703,252.400 279.405 C 252.400 279.107,252.940 278.745,253.600 278.600 C 254.259 278.455,255.024 278.017,255.300 277.626 C 255.575 277.235,256.189 276.792,256.664 276.642 C 257.140 276.492,257.819 275.926,258.173 275.384 C 258.528 274.843,259.148 274.400,259.551 274.400 C 259.954 274.400,260.769 273.950,261.362 273.400 C 261.956 272.850,262.630 272.400,262.860 272.400 C 263.091 272.400,264.161 271.500,265.238 270.400 C 266.380 269.233,267.553 268.400,268.052 268.400 C 268.523 268.400,269.325 267.950,269.835 267.400 C 270.345 266.850,271.147 266.400,271.618 266.400 C 272.134 266.400,272.557 266.087,272.681 265.613 C 272.794 265.181,273.218 264.721,273.623 264.593 C 274.028 264.464,274.470 264.008,274.606 263.580 C 274.776 263.044,275.362 262.720,276.480 262.541 C 277.563 262.368,278.169 262.042,278.293 261.566 C 278.396 261.172,279.002 260.668,279.640 260.446 C 280.278 260.224,280.800 259.782,280.800 259.464 C 280.800 259.147,281.520 258.599,282.400 258.247 C 283.280 257.895,284.000 257.443,284.000 257.242 C 284.000 257.042,284.542 256.689,285.205 256.458 C 285.868 256.227,286.514 255.768,286.641 255.438 C 286.767 255.109,287.485 254.636,288.235 254.388 C 288.985 254.141,290.303 253.241,291.163 252.390 C 292.023 251.538,293.329 250.581,294.064 250.264 C 294.799 249.947,296.185 248.964,297.144 248.080 C 298.114 247.186,299.473 246.363,300.205 246.225 C 300.930 246.089,301.628 245.705,301.756 245.371 C 301.884 245.037,302.621 244.500,303.394 244.177 C 304.167 243.854,304.800 243.412,304.800 243.195 C 304.800 242.978,305.686 242.800,306.770 242.800 L 308.739 242.800 308.870 239.500 C 308.941 237.685,308.910 225.040,308.800 211.400 L 308.600 186.600 288.707 186.400 L 268.814 186.200 268.345 187.400 C 266.659 191.716,264.098 193.880,262.172 192.618 C 261.653 192.278,261.030 192.000,260.789 192.000 C 260.547 192.000,259.178 191.435,257.745 190.744 L 255.141 189.488 254.070 190.277 C 252.816 191.201,250.456 194.923,250.130 196.491 C 249.534 199.359,247.231 198.902,246.226 195.717 C 245.840 194.491,245.024 192.797,244.412 191.953 C 243.801 191.109,242.897 189.425,242.404 188.209 C 241.911 186.994,241.303 186.040,241.054 186.088 C 240.804 186.137,238.035 186.232,234.900 186.299 M176.984 186.827 C 176.839 187.061,176.783 187.294,176.860 187.343 C 176.937 187.392,177.672 187.927,178.494 188.532 C 183.539 192.245,196.000 191.135,196.000 186.971 C 196.000 186.248,177.429 186.107,176.984 186.827 M197.697 194.530 C 192.012 197.687,197.847 212.399,206.800 217.480 C 207.790 218.042,209.107 218.853,209.727 219.283 C 212.767 221.389,217.233 220.447,218.018 217.534 C 218.629 215.264,217.816 209.486,216.645 207.771 C 216.180 207.091,215.131 205.532,214.313 204.307 C 209.841 197.608,201.253 192.555,197.697 194.530 M309.649 235.161 C 309.346 235.353,309.221 235.711,309.372 235.955 C 309.775 236.607,310.523 236.499,310.265 235.826 C 310.144 235.510,310.260 235.164,310.522 235.057 C 310.785 234.951,310.820 234.852,310.600 234.838 C 310.380 234.824,309.952 234.969,309.649 235.161 " stroke="none" fill="#ca3505" fill-rule="evenodd"></path><path id="path1" d="M95.048 107.413 C 95.735 107.714,96.392 108.328,96.510 108.778 C 96.628 109.228,97.056 109.723,97.462 109.879 C 98.459 110.262,101.517 112.343,101.833 112.853 C 101.972 113.079,104.398 114.778,107.222 116.630 C 110.047 118.481,112.504 120.258,112.684 120.578 C 112.863 120.898,113.998 121.423,115.205 121.744 C 116.412 122.065,118.753 123.029,120.406 123.887 C 122.059 124.745,124.399 125.769,125.606 126.163 C 126.813 126.557,128.893 127.390,130.229 128.014 C 131.565 128.638,133.185 129.271,133.829 129.421 C 134.473 129.570,135.648 130.127,136.439 130.658 C 137.231 131.190,139.471 132.166,141.418 132.829 C 143.365 133.491,145.510 134.374,146.185 134.791 C 146.859 135.208,148.849 136.109,150.606 136.795 C 152.363 137.480,154.430 138.375,155.200 138.783 C 155.970 139.192,157.357 139.727,158.282 139.973 C 160.657 140.606,162.321 142.124,162.609 143.924 C 162.739 144.736,163.398 147.380,164.073 149.800 C 164.749 152.220,165.641 155.460,166.055 157.000 C 166.469 158.540,166.857 159.954,166.918 160.142 C 167.107 160.728,169.071 156.692,169.538 154.760 C 171.004 148.681,173.298 146.805,176.753 148.861 C 179.144 150.285,179.203 150.471,178.331 153.871 C 177.903 155.544,177.698 157.050,177.876 157.219 C 178.495 157.803,181.227 159.200,181.753 159.200 C 182.043 159.200,183.163 159.671,184.240 160.247 C 185.318 160.823,187.045 161.547,188.079 161.856 C 190.330 162.530,195.137 167.027,195.942 169.214 C 196.223 169.976,196.887 171.430,197.418 172.445 C 199.323 176.084,199.234 183.607,197.263 185.623 C 196.678 186.220,196.004 187.040,195.764 187.443 C 192.956 192.165,181.085 191.999,176.800 187.180 C 176.690 187.056,176.060 186.724,175.400 186.443 C 173.791 185.756,170.297 181.464,168.976 178.554 C 168.389 177.259,167.697 175.750,167.439 175.200 L 166.970 174.200 160.038 174.090 C 155.416 174.017,152.928 174.128,152.573 174.422 C 151.532 175.287,151.227 207.572,152.246 209.126 C 152.869 210.077,152.873 210.078,159.815 209.939 C 168.383 209.768,167.734 210.324,168.048 202.881 C 168.184 199.646,168.319 196.955,168.348 196.900 C 168.558 196.500,169.600 196.923,169.600 197.409 C 169.600 198.687,172.789 201.539,174.934 202.179 C 181.060 204.007,190.400 214.581,190.400 219.689 C 190.400 220.193,190.566 221.186,190.770 221.895 C 191.676 225.055,194.372 224.839,154.400 224.810 L 119.000 224.785 118.451 225.666 C 117.683 226.897,117.690 238.715,118.459 239.946 L 118.992 240.800 194.082 240.800 C 267.912 240.800,269.179 240.787,269.586 240.026 C 270.254 238.778,270.124 226.723,269.433 225.776 C 268.905 225.054,268.236 224.992,259.868 224.879 C 249.799 224.744,250.546 224.992,249.992 221.600 C 249.830 220.610,249.284 218.810,248.777 217.600 C 247.235 213.915,245.950 211.032,245.570 210.400 C 245.371 210.070,244.820 209.080,244.346 208.200 C 243.871 207.320,242.670 205.340,241.676 203.800 C 240.682 202.260,239.363 200.190,238.745 199.200 C 238.127 198.210,237.474 197.220,237.294 197.000 C 237.114 196.780,236.282 195.565,235.444 194.300 C 234.607 193.035,233.793 192.000,233.636 192.000 C 233.479 192.000,232.461 190.904,231.375 189.565 C 229.154 186.826,228.861 186.525,227.334 185.400 C 226.737 184.960,225.697 183.987,225.024 183.238 C 223.869 181.954,222.458 180.544,218.919 177.138 C 218.084 176.333,217.220 175.474,217.000 175.228 C 216.780 174.982,216.030 174.381,215.334 173.891 C 212.139 171.643,207.745 168.095,205.713 166.122 C 203.549 164.023,206.052 162.797,209.200 164.414 C 210.410 165.035,212.660 166.120,214.200 166.825 C 215.740 167.530,217.452 168.424,218.004 168.812 C 218.556 169.200,219.761 169.720,220.682 169.968 C 221.604 170.216,223.416 171.018,224.710 171.749 C 226.004 172.480,227.588 173.207,228.231 173.364 C 228.874 173.520,230.030 174.056,230.800 174.554 C 231.570 175.052,233.586 176.114,235.280 176.913 C 238.237 178.309,238.403 178.460,239.396 180.683 C 239.966 181.958,240.695 183.510,241.016 184.132 C 241.337 184.755,241.600 185.515,241.600 185.821 C 241.600 186.691,243.525 190.826,244.564 192.188 C 245.080 192.864,245.823 194.436,246.215 195.682 C 247.230 198.901,249.531 199.377,250.130 196.491 C 250.456 194.923,252.816 191.201,254.070 190.277 L 255.141 189.488 257.745 190.744 C 259.178 191.435,260.547 192.000,260.789 192.000 C 261.030 192.000,261.653 192.278,262.172 192.618 C 263.675 193.603,265.033 192.994,266.547 190.654 C 269.944 185.403,269.572 183.716,264.500 181.378 C 259.146 178.910,259.092 178.741,261.813 172.994 C 262.810 170.888,263.520 168.993,263.389 168.783 C 263.249 168.555,258.983 168.400,252.861 168.400 C 243.397 168.400,242.444 168.336,241.017 167.609 C 240.164 167.174,238.821 166.611,238.033 166.358 C 237.245 166.106,236.330 165.681,236.000 165.414 C 234.882 164.510,231.628 162.870,230.429 162.606 C 229.774 162.462,228.824 162.023,228.319 161.631 C 227.813 161.238,226.687 160.684,225.816 160.399 C 223.960 159.794,220.460 158.106,219.600 157.401 C 219.270 157.131,218.100 156.577,217.000 156.171 C 214.915 155.402,212.627 154.215,211.600 153.368 C 211.270 153.097,210.190 152.661,209.200 152.400 C 208.210 152.139,207.130 151.703,206.800 151.431 C 206.029 150.796,202.254 148.995,200.105 148.237 C 199.188 147.913,197.484 147.039,196.318 146.293 C 195.152 145.547,193.658 144.801,192.999 144.636 C 192.339 144.470,190.386 143.539,188.657 142.567 C 186.928 141.595,185.330 140.800,185.106 140.800 C 184.398 140.800,178.800 137.562,178.800 137.152 C 178.800 136.159,180.168 134.373,182.920 131.772 C 187.370 127.565,185.952 126.784,178.600 129.392 C 177.720 129.704,175.553 130.140,173.784 130.360 C 172.015 130.580,170.035 131.038,169.384 131.378 C 167.823 132.191,167.095 132.160,165.304 131.200 C 164.484 130.760,163.570 130.400,163.275 130.400 C 162.647 130.400,155.978 127.629,155.420 127.136 C 155.211 126.951,154.749 126.800,154.394 126.800 C 154.039 126.800,151.960 125.899,149.774 124.797 C 147.588 123.695,145.130 122.683,144.311 122.548 C 143.492 122.412,142.242 121.873,141.533 121.351 C 140.824 120.828,140.091 120.400,139.903 120.400 C 139.715 120.400,138.816 120.040,137.906 119.600 C 136.995 119.160,135.983 118.800,135.657 118.800 C 135.331 118.800,134.150 118.284,133.032 117.653 C 131.915 117.023,130.370 116.373,129.600 116.210 C 128.206 115.914,124.026 114.039,123.091 113.290 C 122.821 113.074,121.520 112.588,120.200 112.210 C 118.880 111.833,117.620 111.384,117.400 111.213 C 117.180 111.041,116.100 110.773,115.000 110.616 C 113.900 110.459,112.009 109.999,110.797 109.594 C 109.585 109.188,106.176 108.576,103.221 108.232 C 100.265 107.889,97.666 107.426,97.444 107.204 C 97.222 106.982,96.311 106.815,95.420 106.833 L 93.800 106.865 95.048 107.413 M204.304 195.303 C 207.406 196.910,212.336 201.344,214.313 204.307 C 215.131 205.532,216.180 207.091,216.645 207.771 C 217.816 209.486,218.629 215.264,218.018 217.534 C 217.233 220.447,212.767 221.389,209.727 219.283 C 209.107 218.853,207.790 218.042,206.800 217.480 C 193.625 210.002,191.207 188.519,204.304 195.303 " stroke="none" fill="#f8f709" fill-rule="evenodd"></path><path id="path2" d="M194.470 67.787 C 194.322 68.014,194.016 68.558,193.790 68.996 C 193.564 69.435,193.063 69.854,192.676 69.928 C 191.689 70.119,190.126 71.648,189.944 72.601 C 189.857 73.061,189.413 73.454,188.899 73.527 C 188.409 73.597,187.773 73.988,187.488 74.396 C 187.198 74.810,186.360 75.195,185.587 75.268 C 184.542 75.368,184.078 75.668,183.681 76.500 C 183.203 77.503,182.962 77.600,180.961 77.600 C 179.091 77.600,178.782 77.704,178.882 78.300 C 178.981 78.885,178.604 79.033,176.600 79.200 C 174.469 79.378,174.185 79.503,174.069 80.322 C 173.862 81.783,172.306 82.159,168.696 81.620 C 165.762 81.183,164.560 81.288,164.967 81.947 C 165.503 82.815,164.249 83.217,160.243 83.462 C 157.105 83.654,155.758 83.899,155.295 84.362 C 153.431 86.226,129.118 86.894,125.365 85.184 C 124.380 84.736,123.400 84.476,123.187 84.608 C 122.974 84.739,122.800 84.590,122.800 84.276 C 122.800 83.551,120.798 83.210,116.500 83.204 C 112.983 83.200,112.963 83.191,113.645 81.915 C 114.053 81.154,114.010 81.110,113.145 81.402 C 110.308 82.358,106.933 82.110,106.058 80.881 C 105.337 79.869,104.897 79.674,102.972 79.514 C 101.737 79.412,100.593 79.113,100.431 78.850 C 100.268 78.587,99.430 78.263,98.568 78.130 C 96.738 77.849,96.000 77.362,96.000 76.438 C 96.000 75.929,95.323 75.650,93.100 75.243 C 89.621 74.607,89.200 74.313,89.200 72.523 C 89.200 71.336,89.079 71.162,88.333 71.272 C 86.211 71.585,86.208 71.665,86.204 131.000 L 86.200 185.400 117.200 185.510 C 134.250 185.571,148.605 185.522,149.100 185.403 C 149.976 185.190,150.000 185.047,150.000 179.952 L 150.000 174.720 151.360 173.360 L 152.720 172.000 159.778 172.000 C 167.545 172.000,168.800 172.409,168.800 174.939 C 168.800 175.475,169.066 176.016,169.390 176.141 C 169.715 176.265,170.182 177.170,170.429 178.151 C 170.676 179.132,171.311 180.340,171.839 180.837 C 172.368 181.333,172.800 181.863,172.800 182.014 C 172.800 182.165,173.460 182.988,174.267 183.844 L 175.734 185.400 185.373 185.519 L 195.013 185.639 196.191 184.409 C 197.786 182.745,197.968 175.702,196.466 173.793 C 195.990 173.187,195.599 172.401,195.598 172.046 C 195.597 171.691,195.058 170.590,194.400 169.600 C 193.742 168.610,193.203 167.596,193.202 167.347 C 193.201 167.097,192.827 166.796,192.370 166.676 C 191.914 166.557,191.443 166.086,191.324 165.630 C 191.204 165.173,190.899 164.800,190.646 164.800 C 190.393 164.800,189.559 164.377,188.793 163.859 C 188.027 163.342,186.750 162.798,185.955 162.651 C 185.160 162.505,184.204 162.047,183.831 161.634 C 183.457 161.221,182.323 160.759,181.309 160.607 C 179.664 160.361,176.824 158.673,175.917 157.403 C 175.571 156.920,175.916 155.288,176.595 154.194 C 177.882 152.120,177.736 151.014,176.079 150.283 C 173.649 149.211,172.996 149.367,172.461 151.153 C 172.206 152.006,171.727 152.928,171.398 153.202 C 171.069 153.475,170.779 154.351,170.753 155.149 C 170.662 157.928,170.419 158.490,167.855 161.862 C 166.830 163.208,165.738 162.235,165.374 159.654 C 165.231 158.634,164.856 157.391,164.541 156.891 C 164.227 156.391,163.793 155.027,163.577 153.861 C 163.362 152.695,162.829 151.041,162.393 150.186 C 161.957 149.331,161.600 147.881,161.600 146.965 C 161.600 143.910,161.218 142.903,159.856 142.364 C 159.165 142.092,158.330 141.651,158.000 141.385 C 157.670 141.119,156.750 140.785,155.955 140.643 C 155.160 140.501,154.207 140.050,153.837 139.641 C 153.452 139.215,152.338 138.789,151.226 138.641 C 150.160 138.500,148.863 138.055,148.344 137.653 C 147.825 137.251,146.900 136.800,146.290 136.651 C 145.679 136.502,144.848 136.048,144.443 135.643 C 144.038 135.238,142.885 134.784,141.882 134.633 C 140.878 134.483,139.639 134.032,139.128 133.632 C 138.618 133.232,137.614 132.776,136.897 132.620 C 136.180 132.463,135.418 132.007,135.203 131.606 C 134.944 131.122,134.140 130.784,132.814 130.602 C 131.715 130.451,130.397 129.998,129.886 129.596 C 129.375 129.195,128.290 128.741,127.475 128.588 C 126.660 128.435,125.590 127.996,125.097 127.613 C 124.603 127.230,123.550 126.796,122.755 126.650 C 121.960 126.504,120.996 126.038,120.613 125.615 C 120.230 125.192,119.351 124.728,118.659 124.584 C 117.966 124.440,116.850 124.006,116.177 123.620 C 115.505 123.234,114.280 122.791,113.456 122.637 C 112.632 122.482,111.861 122.104,111.743 121.796 C 111.545 121.280,110.631 120.616,107.418 118.657 C 106.748 118.248,106.056 117.663,105.880 117.357 C 105.704 117.051,105.309 116.800,105.001 116.800 C 104.693 116.800,103.388 115.923,102.100 114.851 C 100.812 113.779,99.182 112.605,98.479 112.241 C 97.775 111.877,97.200 111.404,97.200 111.190 C 97.200 110.975,96.934 110.800,96.609 110.800 C 96.284 110.800,95.735 110.367,95.388 109.838 C 95.042 109.309,94.330 108.769,93.807 108.637 C 92.375 108.278,91.529 107.257,91.835 106.258 C 92.241 104.932,92.843 104.338,93.353 104.760 C 93.599 104.963,95.690 105.412,98.000 105.759 C 100.310 106.105,103.460 106.654,105.000 106.979 C 106.540 107.305,108.437 107.577,109.215 107.585 C 109.994 107.593,111.326 107.954,112.176 108.388 C 113.025 108.821,114.965 109.348,116.486 109.558 C 118.007 109.769,119.647 110.201,120.131 110.518 C 120.616 110.836,121.586 111.221,122.287 111.375 C 122.989 111.529,123.976 111.977,124.481 112.369 C 124.987 112.762,126.120 113.313,127.000 113.593 C 127.880 113.874,129.050 114.333,129.600 114.614 C 130.150 114.895,131.455 115.427,132.500 115.796 C 133.545 116.164,134.400 116.606,134.400 116.778 C 134.400 116.949,135.402 117.291,136.627 117.537 C 137.851 117.783,139.316 118.348,139.881 118.792 C 140.446 119.236,141.129 119.600,141.400 119.600 C 141.671 119.600,142.322 119.938,142.847 120.351 C 143.372 120.764,144.848 121.319,146.126 121.585 C 147.405 121.850,148.549 122.322,148.668 122.634 C 148.788 122.945,149.201 123.200,149.587 123.200 C 149.973 123.200,150.950 123.649,151.758 124.198 C 152.567 124.746,153.953 125.311,154.840 125.453 C 155.726 125.594,157.040 126.110,157.759 126.598 C 158.479 127.087,159.722 127.609,160.521 127.759 C 161.320 127.909,162.205 128.261,162.487 128.541 C 163.584 129.632,167.588 130.087,170.600 129.464 C 177.413 128.055,181.131 127.124,182.874 126.390 C 186.221 124.980,188.810 125.615,188.465 127.761 C 188.285 128.883,186.430 130.800,185.525 130.800 C 185.093 130.800,184.800 131.091,184.800 131.522 C 184.800 132.425,182.396 134.800,181.481 134.800 C 181.021 134.800,180.800 135.125,180.800 135.800 C 180.800 136.350,180.755 136.922,180.700 137.071 C 180.645 137.220,181.090 137.474,181.689 137.634 C 182.288 137.794,183.258 138.302,183.843 138.763 C 184.429 139.223,185.289 139.603,185.754 139.606 C 186.219 139.609,187.050 139.874,187.600 140.195 C 188.150 140.516,189.140 141.046,189.800 141.372 C 190.460 141.699,191.540 142.332,192.200 142.780 C 192.860 143.228,193.770 143.596,194.222 143.597 C 194.675 143.599,195.655 144.050,196.400 144.600 C 197.145 145.150,197.966 145.600,198.224 145.600 C 198.481 145.600,199.121 145.929,199.646 146.332 C 200.171 146.735,201.471 147.303,202.536 147.594 C 203.601 147.886,204.566 148.366,204.679 148.662 C 204.793 148.958,205.130 149.200,205.429 149.200 C 206.153 149.200,208.800 150.474,208.800 150.823 C 208.800 150.974,209.507 151.211,210.372 151.349 C 211.236 151.487,212.181 151.828,212.472 152.105 C 213.486 153.075,215.178 154.000,215.937 154.000 C 216.358 154.000,216.917 154.258,217.179 154.574 C 217.441 154.890,218.191 155.266,218.845 155.410 C 219.500 155.554,220.342 155.991,220.718 156.383 C 221.093 156.774,222.120 157.325,223.000 157.608 C 223.880 157.890,224.960 158.345,225.400 158.619 C 225.840 158.893,226.650 159.246,227.200 159.404 C 227.750 159.563,228.579 160.038,229.043 160.462 C 229.506 160.885,230.586 161.338,231.443 161.468 C 232.299 161.598,234.255 162.522,235.790 163.520 C 237.324 164.518,239.394 165.506,240.390 165.714 C 241.385 165.922,242.453 166.297,242.762 166.546 C 243.144 166.855,246.529 167.013,253.362 167.040 C 258.883 167.062,263.631 167.107,263.913 167.140 C 265.319 167.304,264.997 171.460,263.459 172.998 C 263.114 173.343,262.714 174.252,262.570 175.017 C 262.427 175.783,262.160 176.501,261.979 176.613 C 261.275 177.048,262.470 179.203,263.540 179.430 C 267.016 180.169,269.798 182.335,270.566 184.900 C 270.801 185.688,306.493 186.007,307.937 185.233 C 308.579 184.890,308.622 181.216,308.611 126.933 L 308.600 69.000 307.688 68.871 C 307.080 68.784,306.400 69.144,305.649 69.948 C 305.029 70.611,304.031 71.277,303.432 71.428 C 302.790 71.589,302.186 72.110,301.964 72.694 C 301.648 73.527,301.375 73.661,300.266 73.532 C 299.095 73.395,298.964 73.475,299.109 74.237 C 299.246 74.952,299.034 75.142,297.851 75.364 C 296.843 75.553,296.278 75.947,295.912 76.715 C 295.496 77.587,295.080 77.824,293.797 77.920 C 292.919 77.987,292.007 78.292,291.771 78.599 C 291.503 78.948,290.377 79.204,288.771 79.279 C 286.452 79.388,286.187 79.488,286.072 80.301 C 285.875 81.690,284.613 82.132,281.702 81.834 C 279.339 81.592,279.116 81.636,278.920 82.385 C 278.734 83.094,278.363 83.207,276.053 83.252 C 273.228 83.307,270.102 83.420,268.300 83.532 C 267.509 83.581,267.200 83.814,267.200 84.361 C 267.200 86.835,237.757 86.785,236.971 84.309 C 236.847 83.919,236.533 83.582,236.273 83.561 C 235.131 83.467,230.455 83.255,228.943 83.229 C 227.521 83.204,227.251 83.059,227.036 82.200 C 226.785 81.202,224.800 80.669,224.800 81.600 C 224.800 82.733,218.677 81.751,218.456 80.582 C 218.243 79.462,217.672 79.213,215.300 79.206 C 213.703 79.201,213.200 79.056,213.200 78.600 C 213.200 78.231,212.825 78.000,212.226 78.000 C 210.560 78.000,209.313 77.306,209.043 76.229 C 208.838 75.412,208.540 75.200,207.592 75.200 C 206.684 75.200,206.400 75.017,206.400 74.433 C 206.400 73.493,205.794 73.247,204.109 73.504 C 202.999 73.674,202.763 73.555,202.419 72.651 C 202.200 72.073,201.741 71.600,201.400 71.600 C 201.059 71.600,200.609 71.150,200.400 70.600 C 200.191 70.050,199.741 69.600,199.400 69.600 C 199.059 69.600,198.617 69.170,198.417 68.645 C 198.023 67.609,195.013 66.955,194.470 67.787 M208.800 166.720 C 208.800 167.014,211.319 169.236,212.164 169.686 C 213.131 170.202,216.260 172.770,218.396 174.800 C 219.206 175.570,220.979 177.186,222.335 178.390 C 223.691 179.595,224.800 180.714,224.800 180.877 C 224.800 181.040,225.454 181.785,226.253 182.533 C 229.539 185.608,228.949 185.400,234.399 185.400 L 239.400 185.400 239.270 184.200 C 239.199 183.540,238.906 182.730,238.619 182.400 C 238.333 182.070,237.867 181.143,237.584 180.341 C 237.146 179.101,236.847 178.846,235.594 178.646 C 234.784 178.516,233.660 178.048,233.097 177.605 C 232.534 177.162,231.891 176.800,231.668 176.800 C 231.444 176.800,230.753 176.373,230.131 175.851 C 229.509 175.329,228.216 174.770,227.258 174.608 C 226.299 174.447,225.179 173.979,224.768 173.568 C 224.357 173.157,223.521 172.703,222.910 172.559 C 222.300 172.415,221.170 171.989,220.400 171.613 C 219.630 171.237,218.325 170.602,217.500 170.201 C 216.675 169.801,216.000 169.342,216.000 169.180 C 216.000 169.019,215.516 168.765,214.924 168.617 C 214.333 168.468,213.388 168.022,212.824 167.624 C 211.928 166.992,208.800 166.289,208.800 166.720 " stroke="none" fill="#649bfb" fill-rule="evenodd"></path><path id="path3" d="M193.200 66.200 C 193.200 67.000,193.000 67.200,192.200 67.200 C 191.366 67.200,191.200 67.390,191.200 68.345 C 191.200 69.366,191.087 69.467,190.142 69.287 C 189.180 69.103,189.103 69.180,189.287 70.142 C 189.467 71.087,189.366 71.200,188.345 71.200 C 187.390 71.200,187.200 71.366,187.200 72.200 C 187.200 73.133,187.067 73.200,185.200 73.200 C 183.333 73.200,183.200 73.267,183.200 74.200 C 183.200 75.133,183.067 75.200,181.200 75.200 C 179.333 75.200,179.200 75.267,179.200 76.200 C 179.200 77.178,179.133 77.200,176.200 77.200 C 173.267 77.200,173.200 77.222,173.200 78.200 C 173.200 79.181,173.142 79.200,170.069 79.200 L 166.939 79.200 167.110 80.365 C 167.429 82.543,173.760 82.503,174.069 80.322 C 174.185 79.503,174.469 79.378,176.600 79.200 C 178.604 79.033,178.981 78.885,178.882 78.300 C 178.782 77.704,179.091 77.600,180.961 77.600 C 182.962 77.600,183.203 77.503,183.681 76.500 C 184.078 75.668,184.542 75.368,185.587 75.268 C 186.360 75.195,187.198 74.810,187.488 74.396 C 187.773 73.988,188.388 73.597,188.853 73.527 C 189.417 73.443,189.850 72.932,190.150 72.000 C 190.497 70.922,190.921 70.496,191.996 70.149 C 192.807 69.887,193.647 69.237,194.002 68.597 C 194.337 67.991,194.744 67.519,194.906 67.548 C 195.068 67.577,195.834 67.600,196.610 67.600 C 197.746 67.600,198.094 67.794,198.400 68.600 C 198.609 69.150,199.059 69.600,199.400 69.600 C 199.741 69.600,200.191 70.050,200.400 70.600 C 200.609 71.150,201.059 71.600,201.400 71.600 C 201.741 71.600,202.200 72.073,202.419 72.651 C 202.763 73.555,202.999 73.674,204.109 73.504 C 205.794 73.247,206.400 73.493,206.400 74.433 C 206.400 75.017,206.684 75.200,207.592 75.200 C 208.540 75.200,208.838 75.412,209.043 76.229 C 209.313 77.306,210.560 78.000,212.226 78.000 C 212.825 78.000,213.200 78.231,213.200 78.600 C 213.200 79.056,213.703 79.201,215.300 79.206 C 217.672 79.213,218.243 79.462,218.456 80.582 C 218.632 81.512,219.845 81.906,222.700 81.960 L 224.800 82.000 224.800 80.600 L 224.800 79.200 221.800 79.200 C 218.867 79.200,218.800 79.178,218.800 78.200 C 218.800 77.222,218.733 77.200,215.800 77.200 C 212.867 77.200,212.800 77.178,212.800 76.200 C 212.800 75.267,212.667 75.200,210.800 75.200 C 208.933 75.200,208.800 75.133,208.800 74.200 C 208.800 73.400,208.600 73.200,207.800 73.200 C 207.000 73.200,206.800 73.000,206.800 72.200 C 206.800 71.267,206.667 71.200,204.800 71.200 C 202.933 71.200,202.800 71.133,202.800 70.200 C 202.800 69.400,202.600 69.200,201.800 69.200 C 201.000 69.200,200.800 69.000,200.800 68.200 C 200.800 67.400,200.600 67.200,199.800 67.200 C 199.000 67.200,198.800 67.000,198.800 66.200 C 198.800 65.229,198.720 65.200,196.000 65.200 C 193.280 65.200,193.200 65.229,193.200 66.200 M305.200 66.200 C 305.200 67.000,305.000 67.200,304.200 67.200 C 303.400 67.200,303.200 67.400,303.200 68.200 C 303.200 69.000,303.000 69.200,302.200 69.200 C 301.400 69.200,301.200 69.400,301.200 70.200 C 301.200 71.000,301.000 71.200,300.200 71.200 C 299.356 71.200,299.200 71.387,299.200 72.400 C 299.200 74.007,301.390 74.205,301.981 72.651 C 302.187 72.108,302.809 71.584,303.432 71.428 C 304.031 71.277,305.036 70.604,305.664 69.931 C 306.515 69.020,307.061 68.757,307.803 68.899 C 308.755 69.080,308.800 69.001,308.800 67.145 L 308.800 65.200 307.000 65.200 C 305.347 65.200,305.200 65.281,305.200 66.200 M83.249 80.700 C 83.332 85.925,83.355 110.498,83.300 135.308 L 83.200 180.415 82.200 180.164 C 80.889 179.835,80.901 180.538,82.230 181.866 C 83.009 182.645,83.239 183.250,83.174 184.348 C 83.038 186.658,83.115 186.800,84.500 186.794 C 86.250 186.786,87.168 186.208,86.497 185.537 C 85.736 184.776,85.785 78.641,86.547 75.781 C 87.470 72.316,87.069 71.200,84.903 71.200 L 83.097 71.200 83.249 80.700 M89.200 72.576 C 89.200 74.171,89.518 74.441,92.104 75.044 C 94.728 75.655,96.000 75.364,96.000 74.153 C 96.000 73.308,95.819 73.200,94.400 73.200 C 92.960 73.200,92.800 73.100,92.800 72.200 C 92.800 71.281,92.653 71.200,91.000 71.200 C 89.215 71.200,89.200 71.212,89.200 72.576 M295.200 74.178 C 295.200 75.138,295.078 75.200,293.200 75.200 C 291.333 75.200,291.200 75.267,291.200 76.200 C 291.200 77.178,291.133 77.200,288.200 77.200 C 285.267 77.200,285.200 77.222,285.200 78.200 C 285.200 79.178,285.133 79.200,282.200 79.200 C 279.267 79.200,279.200 79.222,279.200 80.200 L 279.200 81.200 272.700 81.247 C 269.125 81.273,265.965 81.263,265.677 81.225 C 265.390 81.186,265.186 81.390,265.225 81.677 C 265.431 83.216,265.556 83.200,253.028 83.200 L 240.856 83.200 240.728 82.300 C 240.601 81.411,240.519 81.399,233.674 81.304 L 226.749 81.208 227.024 82.104 C 227.175 82.597,227.347 83.055,227.405 83.122 C 227.463 83.189,229.193 83.241,231.249 83.238 C 235.627 83.231,236.695 83.438,236.984 84.348 C 237.395 85.646,240.841 86.000,253.052 86.000 C 265.190 86.000,267.200 85.771,267.200 84.385 C 267.200 83.574,269.392 83.052,272.000 83.242 C 276.091 83.540,278.702 83.217,278.920 82.385 C 279.116 81.636,279.339 81.592,281.702 81.834 C 284.613 82.132,285.875 81.690,286.072 80.301 C 286.187 79.488,286.452 79.388,288.771 79.279 C 290.377 79.204,291.503 78.948,291.771 78.599 C 292.007 78.292,292.919 77.987,293.797 77.920 C 295.080 77.824,295.496 77.587,295.912 76.715 C 296.276 75.951,296.844 75.553,297.836 75.367 C 300.146 74.934,299.620 73.440,297.100 73.278 C 295.297 73.162,295.200 73.209,295.200 74.178 M96.124 75.854 C 95.711 76.930,96.575 77.774,98.412 78.087 C 99.364 78.250,100.273 78.595,100.434 78.855 C 100.595 79.115,101.737 79.412,102.972 79.514 C 104.881 79.673,105.340 79.873,106.036 80.850 C 107.506 82.916,112.584 82.491,112.616 80.300 L 112.632 79.200 109.316 79.200 C 106.046 79.200,106.000 79.186,106.000 78.200 C 106.000 77.236,105.907 77.200,103.400 77.200 C 100.893 77.200,100.800 77.164,100.800 76.200 C 100.800 74.939,96.594 74.628,96.124 75.854 M160.500 81.099 C 157.737 81.170,155.578 81.394,155.550 81.612 C 155.523 81.826,155.478 82.212,155.450 82.471 C 155.371 83.212,153.654 83.454,150.400 83.181 C 148.750 83.043,147.694 82.900,148.053 82.865 C 148.413 82.829,148.804 82.430,148.922 81.977 C 149.223 80.827,147.932 81.104,147.405 82.302 C 146.782 83.719,130.955 83.716,130.682 82.300 L 130.509 81.400 130.454 82.300 C 130.402 83.169,130.264 83.200,126.437 83.200 C 122.679 83.200,122.486 83.241,122.683 83.996 C 122.797 84.433,123.045 84.696,123.233 84.580 C 123.421 84.464,124.380 84.736,125.365 85.184 C 129.118 86.894,153.431 86.226,155.295 84.362 C 155.758 83.899,157.104 83.654,160.233 83.463 C 164.779 83.184,164.814 83.176,164.941 82.337 C 164.986 82.041,165.163 81.575,165.335 81.300 C 165.507 81.025,165.592 80.839,165.524 80.886 C 165.456 80.934,163.195 81.030,160.500 81.099 M113.624 81.955 C 113.391 82.391,113.200 82.849,113.200 82.974 C 113.200 83.344,121.752 83.218,122.351 82.839 C 122.654 82.647,122.779 82.289,122.628 82.045 C 122.188 81.333,122.856 81.532,123.486 82.300 C 123.801 82.685,123.957 82.794,123.832 82.542 C 123.707 82.290,123.883 81.977,124.223 81.846 C 124.577 81.711,124.737 81.778,124.597 82.005 C 124.463 82.222,124.543 82.400,124.776 82.400 C 125.009 82.400,125.200 82.201,125.200 81.957 C 125.200 81.714,125.464 81.616,125.787 81.740 C 126.110 81.864,126.465 81.818,126.576 81.639 C 126.687 81.459,123.914 81.279,120.413 81.238 C 114.437 81.167,114.022 81.211,113.624 81.955 M239.900 82.473 C 241.209 82.630,240.189 83.200,238.600 83.200 C 237.210 83.200,236.800 83.053,236.800 82.555 C 236.800 82.041,237.066 81.961,238.100 82.161 C 238.815 82.300,239.625 82.440,239.900 82.473 M267.194 82.700 C 267.189 83.298,267.131 83.313,266.800 82.800 C 266.481 82.306,266.411 82.300,266.406 82.767 C 266.403 83.078,266.292 83.225,266.160 83.093 C 265.853 82.786,266.330 82.000,266.824 82.000 C 267.031 82.000,267.197 82.315,267.194 82.700 M81.953 185.876 C 81.927 186.054,81.927 186.335,81.953 186.500 C 81.979 186.665,81.775 186.803,81.500 186.806 C 81.126 186.811,81.135 186.898,81.534 187.151 C 81.828 187.337,82.053 187.604,82.034 187.745 C 82.015 187.885,82.115 187.985,82.255 187.966 C 82.396 187.947,82.663 188.172,82.849 188.466 C 83.053 188.787,83.190 188.820,83.194 188.549 C 83.197 188.301,82.928 187.872,82.595 187.596 C 82.157 187.233,82.107 186.953,82.414 186.583 C 82.710 186.227,82.711 185.992,82.419 185.812 C 82.189 185.669,81.979 185.698,81.953 185.876 M306.100 186.276 C 306.485 186.376,307.115 186.376,307.500 186.276 C 307.885 186.175,307.570 186.093,306.800 186.093 C 306.030 186.093,305.715 186.175,306.100 186.276 M85.200 243.800 C 85.200 244.600,85.400 244.800,86.200 244.800 C 87.000 244.800,87.200 245.000,87.200 245.800 C 87.200 246.733,87.333 246.800,89.200 246.800 C 91.067 246.800,91.200 246.867,91.200 247.800 C 91.200 248.600,91.400 248.800,92.200 248.800 C 93.000 248.800,93.200 249.000,93.200 249.800 C 93.200 250.733,93.333 250.800,95.200 250.800 C 97.067 250.800,97.200 250.867,97.200 251.800 C 97.200 252.600,97.400 252.800,98.200 252.800 C 99.000 252.800,99.200 253.000,99.200 253.800 C 99.200 254.733,99.333 254.800,101.200 254.800 C 103.067 254.800,103.200 254.867,103.200 255.800 C 103.200 256.600,103.400 256.800,104.200 256.800 C 105.000 256.800,105.200 257.000,105.200 257.800 C 105.200 258.676,105.373 258.800,106.600 258.800 C 107.722 258.800,108.000 258.645,108.000 258.019 C 108.000 257.021,105.321 254.400,104.301 254.400 C 103.862 254.400,103.434 254.053,103.316 253.600 C 103.196 253.141,102.770 252.800,102.317 252.800 C 101.883 252.800,101.054 252.260,100.475 251.600 C 99.876 250.917,99.024 250.400,98.498 250.400 C 97.990 250.400,97.468 250.121,97.337 249.780 C 96.911 248.670,94.832 246.872,93.443 246.414 C 92.696 246.168,91.999 245.641,91.895 245.244 C 91.788 244.831,91.190 244.418,90.502 244.280 C 89.839 244.148,89.018 243.760,88.677 243.420 C 87.596 242.339,85.200 242.601,85.200 243.800 M304.800 243.195 C 304.800 243.412,304.167 243.854,303.394 244.177 C 302.621 244.500,301.884 245.037,301.756 245.371 C 301.628 245.705,300.930 246.089,300.205 246.225 C 299.473 246.363,298.114 247.186,297.144 248.080 C 296.185 248.964,294.799 249.947,294.064 250.264 C 293.329 250.581,292.023 251.538,291.163 252.390 C 290.303 253.241,288.985 254.141,288.235 254.388 C 287.485 254.636,286.767 255.109,286.641 255.438 C 286.514 255.768,285.868 256.227,285.205 256.458 C 284.542 256.689,284.000 257.042,284.000 257.242 C 284.000 257.443,283.280 257.895,282.400 258.247 C 281.520 258.599,280.800 259.147,280.800 259.464 C 280.800 259.782,280.278 260.224,279.640 260.446 C 279.002 260.668,278.396 261.172,278.293 261.566 C 278.169 262.042,277.563 262.368,276.480 262.541 C 275.362 262.720,274.776 263.044,274.606 263.580 C 274.470 264.008,274.028 264.464,273.623 264.593 C 273.218 264.721,272.794 265.181,272.681 265.613 C 272.557 266.087,272.134 266.400,271.618 266.400 C 271.147 266.400,270.345 266.850,269.835 267.400 C 269.325 267.950,268.523 268.400,268.052 268.400 C 267.553 268.400,266.380 269.233,265.238 270.400 C 264.161 271.500,263.091 272.400,262.860 272.400 C 262.630 272.400,261.956 272.850,261.362 273.400 C 260.769 273.950,259.954 274.400,259.551 274.400 C 259.148 274.400,258.528 274.843,258.173 275.384 C 257.819 275.926,257.140 276.492,256.664 276.642 C 256.189 276.792,255.575 277.235,255.300 277.626 C 255.024 278.017,254.259 278.455,253.600 278.600 C 252.940 278.745,252.400 279.107,252.400 279.405 C 252.400 279.703,252.035 280.062,251.589 280.203 C 251.143 280.345,250.496 280.892,250.150 281.420 C 249.788 281.973,248.962 282.484,248.198 282.627 C 247.414 282.774,246.799 283.162,246.690 283.577 C 246.589 283.963,245.988 284.389,245.353 284.524 C 244.210 284.766,241.200 287.304,241.200 288.025 C 241.200 288.231,240.681 288.400,240.046 288.400 C 239.256 288.400,238.685 288.716,238.237 289.400 C 237.876 289.950,237.323 290.400,237.007 290.400 C 236.691 290.400,236.020 290.836,235.516 291.368 C 235.012 291.901,234.150 292.396,233.600 292.468 C 232.937 292.556,232.559 292.888,232.478 293.454 C 232.394 294.044,231.979 294.384,231.137 294.553 C 230.467 294.687,229.563 295.247,229.130 295.798 C 228.697 296.349,228.016 296.800,227.618 296.800 C 227.219 296.800,226.799 297.160,226.684 297.600 C 226.565 298.055,226.138 298.400,225.696 298.400 C 225.267 298.400,224.433 298.848,223.841 299.397 C 223.250 299.945,222.341 300.500,221.821 300.631 C 221.301 300.761,220.785 301.213,220.675 301.634 C 220.559 302.077,220.126 302.400,219.648 302.400 C 219.133 302.400,218.586 302.854,218.200 303.600 C 217.840 304.296,217.260 304.800,216.818 304.800 C 216.332 304.800,216.009 305.126,215.928 305.700 C 215.820 306.462,215.555 306.600,214.200 306.600 C 212.752 306.600,212.588 306.704,212.473 307.700 C 212.357 308.716,212.211 308.800,210.573 308.800 C 208.948 308.800,208.800 308.884,208.800 309.800 C 208.800 310.600,208.600 310.800,207.800 310.800 C 207.000 310.800,206.800 311.000,206.800 311.800 C 206.800 312.644,206.613 312.800,205.600 312.800 C 204.587 312.800,204.400 312.956,204.400 313.800 C 204.400 314.644,204.587 314.800,205.600 314.800 C 206.613 314.800,206.800 314.644,206.800 313.800 C 206.800 313.000,207.000 312.800,207.800 312.800 C 208.600 312.800,208.800 312.600,208.800 311.800 C 208.800 310.867,208.933 310.800,210.800 310.800 C 212.655 310.800,212.800 310.729,212.800 309.822 C 212.800 308.939,212.985 308.832,214.700 308.722 C 216.321 308.618,216.619 308.468,216.728 307.700 C 216.820 307.049,217.124 306.800,217.828 306.800 C 218.592 306.800,218.800 306.591,218.800 305.822 C 218.800 304.939,218.985 304.832,220.700 304.722 C 222.321 304.618,222.619 304.468,222.728 303.700 C 222.820 303.049,223.124 302.800,223.828 302.800 C 224.598 302.800,224.800 302.592,224.800 301.800 C 224.800 301.000,225.000 300.800,225.800 300.800 C 226.600 300.800,226.800 300.600,226.800 299.800 C 226.800 298.867,226.933 298.800,228.800 298.800 C 230.667 298.800,230.800 298.733,230.800 297.800 C 230.800 297.000,231.000 296.800,231.800 296.800 C 232.600 296.800,232.800 296.600,232.800 295.800 C 232.800 294.867,232.933 294.800,234.800 294.800 C 236.667 294.800,236.800 294.733,236.800 293.800 C 236.800 293.000,237.000 292.800,237.800 292.800 C 238.600 292.800,238.800 292.600,238.800 291.800 C 238.800 290.867,238.933 290.800,240.800 290.800 C 242.667 290.800,242.800 290.733,242.800 289.800 C 242.800 289.000,243.000 288.800,243.800 288.800 C 244.600 288.800,244.800 288.600,244.800 287.800 C 244.800 286.867,244.933 286.800,246.800 286.800 C 248.667 286.800,248.800 286.733,248.800 285.800 C 248.800 285.000,249.000 284.800,249.800 284.800 C 250.600 284.800,250.800 284.600,250.800 283.800 C 250.800 283.000,251.000 282.800,251.800 282.800 C 252.594 282.800,252.800 282.599,252.800 281.821 C 252.800 280.922,252.972 280.832,254.900 280.721 C 256.729 280.616,257.016 280.484,257.128 279.700 C 257.220 279.049,257.524 278.800,258.228 278.800 C 258.992 278.800,259.200 278.591,259.200 277.822 C 259.200 276.939,259.385 276.832,261.100 276.722 C 262.721 276.618,263.019 276.468,263.128 275.700 C 263.220 275.049,263.524 274.800,264.228 274.800 C 264.998 274.800,265.200 274.592,265.200 273.800 C 265.200 272.885,265.350 272.800,266.957 272.800 C 268.497 272.800,268.744 272.677,268.964 271.800 C 269.148 271.069,269.483 270.800,270.208 270.800 C 270.753 270.800,271.179 270.665,271.153 270.500 C 270.944 269.180,271.279 268.840,272.900 268.723 C 274.313 268.621,274.622 268.448,274.728 267.700 C 274.827 267.000,275.117 266.800,276.028 266.800 C 277.011 266.800,277.200 266.639,277.200 265.800 C 277.200 265.000,277.400 264.800,278.200 264.800 C 278.994 264.800,279.200 264.599,279.200 263.822 C 279.200 262.939,279.385 262.832,281.100 262.722 C 282.693 262.620,283.000 262.471,283.000 261.800 C 283.000 261.225,283.309 260.964,284.100 260.873 C 284.956 260.775,285.200 260.536,285.200 259.795 C 285.200 258.944,285.400 258.831,287.100 258.722 C 288.693 258.620,289.000 258.471,289.000 257.800 C 289.000 257.225,289.309 256.964,290.100 256.873 C 290.964 256.774,291.200 256.538,291.200 255.773 C 291.200 254.872,291.348 254.800,293.200 254.800 C 295.067 254.800,295.200 254.733,295.200 253.800 C 295.200 253.000,295.400 252.800,296.200 252.800 C 296.994 252.800,297.200 252.599,297.200 251.822 C 297.200 250.939,297.385 250.832,299.100 250.722 C 300.689 250.620,301.000 250.470,301.001 249.804 C 301.001 249.236,301.338 248.949,302.178 248.804 C 302.825 248.692,303.320 248.465,303.277 248.300 C 303.031 247.346,303.294 246.800,304.000 246.800 C 304.587 246.800,304.800 246.533,304.800 245.800 C 304.800 244.830,305.943 244.485,308.250 244.759 C 308.498 244.788,308.700 244.359,308.700 243.806 C 308.700 242.869,308.566 242.800,306.750 242.800 C 305.678 242.800,304.800 242.978,304.800 243.195 M306.400 245.704 C 306.400 246.055,306.085 246.424,305.700 246.524 C 305.044 246.696,305.045 246.710,305.713 246.754 C 306.436 246.801,307.106 245.773,306.649 245.316 C 306.512 245.179,306.400 245.353,306.400 245.704 M300.145 249.400 C 300.018 249.730,299.754 250.000,299.557 250.000 C 299.361 250.000,299.200 249.730,299.200 249.400 C 299.200 249.070,299.464 248.800,299.787 248.800 C 300.145 248.800,300.285 249.035,300.145 249.400 M109.200 259.600 C 109.200 260.613,109.356 260.800,110.200 260.800 C 111.000 260.800,111.200 261.000,111.200 261.800 C 111.200 262.600,111.400 262.800,112.200 262.800 C 113.000 262.800,113.200 263.000,113.200 263.800 C 113.200 264.733,113.333 264.800,115.200 264.800 C 117.067 264.800,117.200 264.867,117.200 265.800 C 117.200 266.600,117.400 266.800,118.200 266.800 C 119.000 266.800,119.200 267.000,119.200 267.800 C 119.200 268.736,119.330 268.800,121.243 268.800 C 123.223 268.800,123.279 268.831,123.036 269.800 C 122.810 270.701,122.904 270.800,123.992 270.800 C 125.014 270.800,125.200 270.954,125.200 271.800 C 125.200 272.600,125.400 272.800,126.200 272.800 C 127.000 272.800,127.200 273.000,127.200 273.800 C 127.200 274.733,127.333 274.800,129.200 274.800 C 131.067 274.800,131.200 274.867,131.200 275.800 C 131.200 276.600,131.400 276.800,132.200 276.800 C 133.000 276.800,133.200 277.000,133.200 277.800 C 133.200 278.733,133.333 278.800,135.200 278.800 C 137.067 278.800,137.200 278.867,137.200 279.800 C 137.200 280.600,137.400 280.800,138.200 280.800 C 139.000 280.800,139.200 281.000,139.200 281.800 C 139.200 282.595,139.401 282.800,140.182 282.800 C 140.722 282.800,141.614 283.250,142.164 283.800 C 142.714 284.350,143.622 284.800,144.182 284.800 C 145.001 284.800,145.200 284.995,145.200 285.800 C 145.200 286.600,145.400 286.800,146.200 286.800 C 147.000 286.800,147.200 287.000,147.200 287.800 C 147.200 288.733,147.333 288.800,149.200 288.800 C 151.067 288.800,151.200 288.867,151.200 289.800 C 151.200 290.826,151.789 291.019,154.300 290.816 C 155.019 290.757,155.200 290.950,155.200 291.771 C 155.200 292.602,155.393 292.800,156.200 292.800 C 157.000 292.800,157.200 293.000,157.200 293.800 C 157.200 294.600,157.400 294.800,158.200 294.800 C 159.000 294.800,159.200 295.000,159.200 295.800 C 159.200 296.733,159.333 296.800,161.200 296.800 C 163.067 296.800,163.200 296.867,163.200 297.800 C 163.200 298.600,163.400 298.800,164.200 298.800 C 165.000 298.800,165.200 299.000,165.200 299.800 C 165.200 300.592,165.402 300.800,166.172 300.800 C 166.876 300.800,167.180 301.049,167.272 301.700 C 167.381 302.468,167.679 302.618,169.300 302.722 C 171.015 302.832,171.200 302.939,171.200 303.822 C 171.200 304.599,171.406 304.800,172.200 304.800 C 173.000 304.800,173.200 305.000,173.200 305.800 C 173.200 306.733,173.333 306.800,175.200 306.800 C 177.067 306.800,177.200 306.867,177.200 307.800 C 177.200 308.600,177.400 308.800,178.200 308.800 C 179.000 308.800,179.200 309.000,179.200 309.800 C 179.200 310.733,179.333 310.800,181.200 310.800 C 183.067 310.800,183.200 310.867,183.200 311.800 C 183.200 312.600,183.400 312.800,184.200 312.800 C 185.000 312.800,185.200 313.000,185.200 313.800 C 185.200 314.733,185.333 314.800,187.200 314.800 C 189.067 314.800,189.200 314.867,189.200 315.800 C 189.200 316.644,189.387 316.800,190.400 316.800 C 191.413 316.800,191.600 316.644,191.600 315.800 C 191.600 315.012,191.397 314.800,190.643 314.800 C 189.957 314.800,189.616 314.518,189.436 313.800 C 189.215 312.919,188.971 312.800,187.392 312.800 C 185.760 312.800,185.600 312.713,185.600 311.827 C 185.600 311.196,185.311 310.762,184.777 310.593 C 184.324 310.449,183.785 309.885,183.577 309.340 C 183.267 308.524,182.973 308.371,181.913 308.474 C 180.844 308.579,180.535 308.414,180.091 307.500 C 179.768 306.834,179.234 306.400,178.741 306.400 C 178.269 306.400,177.839 306.072,177.722 305.622 C 177.610 305.195,177.132 304.790,176.659 304.722 C 176.187 304.655,175.626 304.204,175.414 303.721 C 175.150 303.118,174.536 302.758,173.465 302.577 C 172.439 302.404,171.838 302.065,171.713 301.590 C 171.609 301.193,171.091 300.759,170.562 300.626 C 169.974 300.479,169.600 300.093,169.600 299.635 C 169.600 298.784,168.852 298.400,167.194 298.400 C 166.427 298.400,165.975 298.152,165.814 297.643 C 165.682 297.227,165.222 296.794,164.792 296.682 C 164.362 296.569,163.824 295.988,163.596 295.390 C 163.240 294.453,163.020 294.336,161.996 294.541 C 160.973 294.745,160.724 294.614,160.194 293.589 C 159.856 292.935,159.308 292.400,158.977 292.400 C 158.646 292.400,158.259 292.085,158.117 291.700 C 157.764 290.744,157.197 290.413,155.900 290.406 C 155.093 290.402,154.800 290.200,154.800 289.649 C 154.800 289.180,154.317 288.697,153.517 288.366 C 152.812 288.073,151.912 287.512,151.517 287.117 C 151.123 286.723,150.542 286.400,150.227 286.400 C 149.912 286.400,149.543 286.051,149.408 285.625 C 149.273 285.198,148.542 284.645,147.784 284.395 C 147.026 284.145,146.270 283.710,146.103 283.428 C 145.936 283.147,145.395 282.704,144.900 282.444 C 144.405 282.184,144.000 281.727,144.000 281.429 C 144.000 280.830,143.151 280.400,141.967 280.400 C 141.545 280.400,140.833 280.033,140.384 279.584 C 139.935 279.135,139.125 278.600,138.584 278.394 C 138.043 278.188,137.600 277.765,137.600 277.454 C 137.600 277.124,137.012 276.779,136.182 276.623 C 135.241 276.446,134.650 276.061,134.425 275.478 C 133.949 274.246,132.127 272.771,130.541 272.333 C 129.804 272.129,129.200 271.734,129.200 271.455 C 129.200 271.176,128.570 270.648,127.800 270.281 C 127.030 269.913,126.400 269.438,126.400 269.225 C 126.400 269.011,125.747 268.714,124.948 268.564 C 124.071 268.399,123.426 268.020,123.317 267.605 C 123.218 267.227,122.522 266.625,121.769 266.266 C 121.016 265.907,120.400 265.448,120.400 265.246 C 120.400 265.044,119.860 264.690,119.200 264.460 C 118.540 264.230,118.000 263.766,118.000 263.428 C 118.000 262.743,116.715 262.309,115.201 262.484 C 114.427 262.574,114.174 262.398,114.074 261.701 C 113.995 261.156,113.581 260.710,113.022 260.570 C 112.515 260.443,111.902 259.902,111.659 259.369 C 110.967 257.850,109.200 258.016,109.200 259.600 M153.200 292.400 C 153.200 292.620,153.605 292.797,154.100 292.794 C 154.828 292.789,154.885 292.714,154.400 292.400 C 153.624 291.899,153.200 291.899,153.200 292.400 M222.221 303.659 C 222.352 304.559,221.041 304.334,220.864 303.426 C 220.769 302.941,220.941 302.769,221.426 302.864 C 221.810 302.939,222.168 303.296,222.221 303.659 " stroke="none" fill="#493d53" fill-rule="evenodd"></path><path id="path4" d="M96.000 74.175 C 96.000 74.960,95.797 75.200,95.133 75.200 C 94.657 75.200,94.366 75.299,94.487 75.420 C 95.157 76.091,98.838 75.070,98.721 74.246 C 98.522 72.855,96.000 72.790,96.000 74.175 M81.680 75.680 C 81.327 76.033,81.203 79.394,81.213 88.380 L 81.225 100.600 82.150 101.272 L 83.076 101.944 83.322 93.702 C 83.746 79.470,83.257 74.103,81.680 75.680 M106.000 78.175 C 106.000 79.084,106.162 79.200,107.428 79.200 C 108.680 79.200,108.840 79.089,108.728 78.300 C 108.524 76.863,106.000 76.747,106.000 78.175 M112.684 79.450 C 111.906 80.227,112.431 81.200,113.628 81.200 C 114.672 81.200,114.837 81.066,114.728 80.300 C 114.602 79.411,113.274 78.859,112.684 79.450 M165.626 79.769 C 165.005 80.517,165.399 81.200,166.451 81.200 C 167.049 81.200,167.223 80.977,167.128 80.331 C 166.968 79.246,166.275 78.987,165.626 79.769 M224.800 80.200 C 224.800 81.000,225.000 81.200,225.800 81.200 C 226.837 81.200,226.966 80.615,226.129 79.710 C 225.380 78.901,224.800 79.115,224.800 80.200 M125.457 81.800 C 124.782 82.475,124.224 82.608,124.597 82.005 C 124.737 81.778,124.577 81.711,124.223 81.846 C 123.883 81.977,123.707 82.290,123.832 82.542 C 123.957 82.794,123.801 82.685,123.486 82.300 C 122.797 81.460,122.342 81.384,122.639 82.158 C 122.773 82.508,122.433 82.882,121.727 83.162 L 120.600 83.608 121.950 83.404 C 122.692 83.292,124.897 83.200,126.850 83.200 C 130.296 83.200,130.400 83.173,130.400 82.272 C 130.400 81.276,127.729 80.933,126.438 81.762 C 126.050 82.012,125.965 81.981,126.162 81.662 C 126.564 81.011,126.169 81.088,125.457 81.800 M147.439 81.538 C 147.300 81.761,147.382 82.065,147.620 82.212 C 148.235 82.593,148.632 82.072,148.118 81.558 C 147.831 81.271,147.607 81.264,147.439 81.538 M148.901 82.058 C 148.794 82.466,148.413 82.829,148.053 82.865 C 147.694 82.900,148.750 83.043,150.400 83.181 C 154.137 83.494,155.284 83.241,155.464 82.060 C 155.657 80.794,149.232 80.791,148.901 82.058 M236.800 82.555 C 236.800 83.053,237.210 83.200,238.600 83.200 C 240.189 83.200,241.209 82.630,239.900 82.473 C 239.625 82.440,238.815 82.300,238.100 82.161 C 237.066 81.961,236.800 82.041,236.800 82.555 M266.184 82.427 C 266.039 82.661,266.028 82.961,266.160 83.093 C 266.292 83.225,266.403 83.078,266.406 82.767 C 266.411 82.300,266.481 82.306,266.800 82.800 C 267.131 83.313,267.189 83.298,267.194 82.700 C 267.201 81.925,266.595 81.761,266.184 82.427 M309.159 89.625 C 308.685 89.919,308.600 97.204,308.600 137.400 C 308.600 179.124,308.528 184.874,308.000 185.208 C 306.755 185.996,270.805 185.700,270.566 184.900 C 269.798 182.335,267.016 180.169,263.540 179.430 C 262.470 179.203,261.275 177.048,261.979 176.613 C 262.160 176.501,262.427 175.783,262.570 175.017 C 262.714 174.252,263.114 173.343,263.459 172.998 C 264.997 171.460,265.319 167.304,263.913 167.140 C 263.631 167.107,258.883 167.062,253.362 167.040 C 246.529 167.013,243.144 166.855,242.762 166.546 C 242.453 166.297,241.385 165.922,240.390 165.714 C 239.394 165.506,237.324 164.518,235.790 163.520 C 234.255 162.522,232.299 161.598,231.443 161.468 C 230.586 161.338,229.506 160.885,229.043 160.462 C 228.579 160.038,227.750 159.563,227.200 159.404 C 226.650 159.246,225.840 158.893,225.400 158.619 C 224.960 158.345,223.880 157.890,223.000 157.608 C 222.120 157.325,221.093 156.774,220.718 156.383 C 220.342 155.991,219.500 155.554,218.845 155.410 C 218.191 155.266,217.441 154.890,217.179 154.574 C 216.917 154.258,216.358 154.000,215.937 154.000 C 215.178 154.000,213.486 153.075,212.472 152.105 C 212.181 151.828,211.236 151.487,210.372 151.349 C 209.507 151.211,208.800 150.974,208.800 150.823 C 208.800 150.474,206.153 149.200,205.429 149.200 C 205.130 149.200,204.793 148.958,204.679 148.662 C 204.566 148.366,203.601 147.886,202.536 147.594 C 201.471 147.303,200.171 146.735,199.646 146.332 C 199.121 145.929,198.481 145.600,198.224 145.600 C 197.966 145.600,197.145 145.150,196.400 144.600 C 195.655 144.050,194.675 143.599,194.222 143.597 C 193.770 143.596,192.860 143.228,192.200 142.780 C 191.540 142.332,190.460 141.699,189.800 141.372 C 189.140 141.046,188.150 140.516,187.600 140.195 C 187.050 139.874,186.219 139.609,185.754 139.606 C 185.289 139.603,184.429 139.223,183.843 138.763 C 183.258 138.302,182.337 137.807,181.797 137.663 C 181.257 137.518,180.812 137.265,180.808 137.100 C 180.757 135.104,180.851 134.800,181.522 134.800 C 182.425 134.800,184.800 132.396,184.800 131.481 C 184.800 131.090,185.109 130.800,185.525 130.800 C 186.430 130.800,188.285 128.883,188.465 127.761 C 188.810 125.615,186.221 124.980,182.874 126.390 C 181.131 127.124,177.413 128.055,170.600 129.464 C 167.588 130.087,163.584 129.632,162.487 128.541 C 162.205 128.261,161.320 127.909,160.521 127.759 C 159.722 127.609,158.479 127.087,157.759 126.598 C 157.040 126.110,155.726 125.594,154.840 125.453 C 153.953 125.311,152.567 124.746,151.758 124.198 C 150.950 123.649,149.973 123.200,149.587 123.200 C 149.201 123.200,148.788 122.945,148.668 122.634 C 148.549 122.322,147.405 121.850,146.126 121.585 C 144.848 121.319,143.372 120.764,142.847 120.351 C 142.322 119.938,141.671 119.600,141.400 119.600 C 141.129 119.600,140.446 119.236,139.881 118.792 C 139.316 118.348,137.851 117.783,136.627 117.537 C 135.402 117.291,134.400 116.949,134.400 116.778 C 134.400 116.606,133.545 116.164,132.500 115.796 C 131.455 115.427,130.150 114.895,129.600 114.614 C 129.050 114.333,127.880 113.874,127.000 113.593 C 126.120 113.313,124.987 112.762,124.481 112.369 C 123.976 111.977,122.989 111.529,122.287 111.375 C 121.586 111.221,120.616 110.836,120.131 110.518 C 119.647 110.201,118.007 109.769,116.486 109.558 C 114.965 109.348,113.025 108.821,112.176 108.388 C 111.326 107.954,109.994 107.593,109.215 107.585 C 108.437 107.577,106.540 107.305,105.000 106.979 C 103.460 106.654,100.310 106.105,98.000 105.759 C 95.690 105.412,93.599 104.963,93.353 104.760 C 92.843 104.338,92.241 104.932,91.835 106.258 C 91.529 107.257,92.375 108.278,93.807 108.637 C 94.330 108.769,95.042 109.309,95.388 109.838 C 95.735 110.367,96.284 110.800,96.609 110.800 C 96.934 110.800,97.200 110.975,97.200 111.190 C 97.200 111.404,97.775 111.877,98.479 112.241 C 99.182 112.605,100.812 113.779,102.100 114.851 C 103.388 115.923,104.693 116.800,105.001 116.800 C 105.309 116.800,105.704 117.051,105.880 117.357 C 106.056 117.663,106.748 118.248,107.418 118.657 C 110.631 120.616,111.545 121.280,111.743 121.796 C 111.861 122.104,112.632 122.482,113.456 122.637 C 114.280 122.791,115.505 123.234,116.177 123.620 C 116.850 124.006,117.966 124.440,118.659 124.584 C 119.351 124.728,120.230 125.192,120.613 125.615 C 120.996 126.038,121.960 126.504,122.755 126.650 C 123.550 126.796,124.603 127.230,125.097 127.613 C 125.590 127.996,126.660 128.435,127.475 128.588 C 128.290 128.741,129.375 129.195,129.886 129.596 C 130.397 129.998,131.715 130.451,132.814 130.602 C 134.140 130.784,134.944 131.122,135.203 131.606 C 135.418 132.007,136.180 132.463,136.897 132.620 C 137.614 132.776,138.618 133.232,139.128 133.632 C 139.639 134.032,140.878 134.483,141.882 134.633 C 142.885 134.784,144.038 135.238,144.443 135.643 C 144.848 136.048,145.679 136.502,146.290 136.651 C 146.900 136.800,147.825 137.251,148.344 137.653 C 148.863 138.055,150.160 138.500,151.226 138.641 C 152.338 138.789,153.452 139.215,153.837 139.641 C 154.207 140.050,155.160 140.501,155.955 140.643 C 156.750 140.785,157.670 141.119,158.000 141.385 C 158.330 141.651,159.165 142.092,159.856 142.364 C 161.218 142.903,161.600 143.910,161.600 146.965 C 161.600 147.881,161.957 149.331,162.393 150.186 C 162.829 151.041,163.362 152.695,163.577 153.861 C 163.793 155.027,164.227 156.391,164.541 156.891 C 164.856 157.391,165.231 158.634,165.374 159.654 C 165.738 162.235,166.830 163.208,167.855 161.862 C 170.419 158.490,170.662 157.928,170.753 155.149 C 170.779 154.351,171.069 153.475,171.398 153.202 C 171.727 152.928,172.206 152.006,172.461 151.153 C 172.996 149.367,173.649 149.211,176.079 150.283 C 177.736 151.014,177.882 152.120,176.595 154.194 C 175.916 155.288,175.571 156.920,175.917 157.403 C 176.824 158.673,179.664 160.361,181.309 160.607 C 182.323 160.759,183.457 161.221,183.831 161.634 C 184.204 162.047,185.160 162.505,185.955 162.651 C 186.750 162.798,188.027 163.342,188.793 163.859 C 189.559 164.377,190.393 164.800,190.646 164.800 C 190.899 164.800,191.204 165.173,191.324 165.630 C 191.443 166.086,191.914 166.557,192.370 166.676 C 192.827 166.796,193.201 167.097,193.202 167.347 C 193.203 167.596,193.742 168.610,194.400 169.600 C 195.058 170.590,195.597 171.691,195.598 172.046 C 195.599 172.401,195.990 173.187,196.466 173.793 C 197.968 175.702,197.786 182.745,196.191 184.409 L 195.013 185.639 185.373 185.519 L 175.734 185.400 174.267 183.844 C 173.460 182.988,172.800 182.165,172.800 182.014 C 172.800 181.863,172.368 181.333,171.839 180.837 C 171.311 180.340,170.676 179.132,170.429 178.151 C 170.182 177.170,169.715 176.265,169.390 176.141 C 169.066 176.016,168.800 175.475,168.800 174.939 C 168.800 172.409,167.545 172.000,159.778 172.000 L 152.720 172.000 151.360 173.360 L 150.000 174.720 150.000 179.917 C 150.000 184.287,149.899 185.153,149.367 185.357 C 149.019 185.491,134.799 185.600,117.767 185.600 C 97.389 185.600,86.800 185.737,86.800 186.000 C 86.800 186.760,151.465 186.529,151.757 185.767 C 151.891 185.419,152.000 182.831,152.000 180.016 C 152.000 173.520,151.411 173.954,160.038 174.090 L 166.970 174.200 167.439 175.200 C 167.697 175.750,168.389 177.259,168.976 178.554 C 170.144 181.128,173.729 185.712,175.000 186.257 C 175.440 186.446,180.551 186.510,186.358 186.400 L 196.915 186.200 197.758 185.070 C 199.143 183.212,198.994 175.358,197.521 172.600 C 196.934 171.500,196.223 169.976,195.942 169.214 C 195.137 167.027,190.330 162.530,188.079 161.856 C 187.045 161.547,185.318 160.823,184.240 160.247 C 183.163 159.671,182.043 159.200,181.753 159.200 C 181.227 159.200,178.495 157.803,177.876 157.219 C 177.698 157.050,177.903 155.544,178.331 153.871 C 179.203 150.471,179.144 150.285,176.753 148.861 C 173.298 146.805,171.004 148.681,169.538 154.760 C 169.071 156.692,167.107 160.728,166.918 160.142 C 166.857 159.954,166.469 158.540,166.055 157.000 C 165.641 155.460,164.749 152.220,164.073 149.800 C 163.398 147.380,162.739 144.736,162.609 143.924 C 162.321 142.124,160.657 140.606,158.282 139.973 C 157.357 139.727,155.970 139.192,155.200 138.783 C 154.430 138.375,152.363 137.480,150.606 136.795 C 148.849 136.109,146.859 135.208,146.185 134.791 C 145.510 134.374,143.365 133.491,141.418 132.829 C 139.471 132.166,137.231 131.190,136.439 130.658 C 135.648 130.127,134.473 129.570,133.829 129.421 C 133.185 129.271,131.565 128.638,130.229 128.014 C 128.893 127.390,126.813 126.557,125.606 126.163 C 124.399 125.769,122.059 124.745,120.406 123.887 C 118.753 123.029,116.412 122.065,115.205 121.744 C 113.998 121.423,112.863 120.898,112.684 120.578 C 112.504 120.258,110.047 118.481,107.222 116.630 C 104.398 114.778,101.972 113.079,101.833 112.853 C 101.517 112.343,98.459 110.262,97.462 109.879 C 97.056 109.723,96.628 109.228,96.510 108.778 C 96.392 108.328,95.735 107.714,95.048 107.413 L 93.800 106.865 95.420 106.833 C 96.311 106.815,97.222 106.982,97.444 107.204 C 97.666 107.426,100.265 107.889,103.221 108.232 C 106.176 108.576,109.585 109.188,110.797 109.594 C 112.009 109.999,113.900 110.459,115.000 110.616 C 116.100 110.773,117.180 111.041,117.400 111.213 C 117.620 111.384,118.880 111.833,120.200 112.210 C 121.520 112.588,122.821 113.074,123.091 113.290 C 124.026 114.039,128.206 115.914,129.600 116.210 C 130.370 116.373,131.915 117.023,133.032 117.653 C 134.150 118.284,135.331 118.800,135.657 118.800 C 135.983 118.800,136.995 119.160,137.906 119.600 C 138.816 120.040,139.715 120.400,139.903 120.400 C 140.091 120.400,140.824 120.828,141.533 121.351 C 142.242 121.873,143.492 122.412,144.311 122.548 C 145.130 122.683,147.588 123.695,149.774 124.797 C 151.960 125.899,154.039 126.800,154.394 126.800 C 154.749 126.800,155.211 126.951,155.420 127.136 C 155.978 127.629,162.647 130.400,163.275 130.400 C 163.570 130.400,164.484 130.760,165.304 131.200 C 167.095 132.160,167.823 132.191,169.384 131.378 C 170.035 131.038,172.015 130.580,173.784 130.360 C 175.553 130.140,177.720 129.704,178.600 129.392 C 185.952 126.784,187.370 127.565,182.920 131.772 C 180.168 134.373,178.800 136.159,178.800 137.152 C 178.800 137.562,184.398 140.800,185.106 140.800 C 185.330 140.800,186.928 141.595,188.657 142.567 C 190.386 143.539,192.339 144.470,192.999 144.636 C 193.658 144.801,195.152 145.547,196.318 146.293 C 197.484 147.039,199.188 147.913,200.105 148.237 C 202.254 148.995,206.029 150.796,206.800 151.431 C 207.130 151.703,208.210 152.139,209.200 152.400 C 210.190 152.661,211.270 153.097,211.600 153.368 C 212.627 154.215,214.915 155.402,217.000 156.171 C 218.100 156.577,219.270 157.131,219.600 157.401 C 220.460 158.106,223.960 159.794,225.816 160.399 C 226.687 160.684,227.813 161.238,228.319 161.631 C 228.824 162.023,229.774 162.462,230.429 162.606 C 231.628 162.870,234.882 164.510,236.000 165.414 C 236.330 165.681,237.245 166.106,238.033 166.358 C 238.821 166.611,240.164 167.174,241.017 167.609 C 242.444 168.336,243.397 168.400,252.861 168.400 C 258.983 168.400,263.249 168.555,263.389 168.783 C 263.520 168.993,262.810 170.888,261.813 172.994 C 259.093 178.737,259.149 178.911,264.481 181.369 C 267.605 182.809,267.934 183.073,268.480 184.569 L 269.075 186.200 288.571 186.254 C 299.630 186.284,308.225 186.465,308.431 186.671 C 308.638 186.878,308.838 197.475,308.897 211.340 L 309.000 235.646 309.906 234.802 L 310.812 233.957 310.782 162.079 C 310.751 86.980,310.788 88.618,309.159 89.625 M82.113 122.879 L 81.227 123.823 81.227 151.868 L 81.227 179.914 82.096 180.141 C 82.574 180.266,83.019 180.314,83.085 180.248 C 83.151 180.182,83.159 167.035,83.103 151.032 L 83.000 121.935 82.113 122.879 M206.156 163.608 C 204.861 164.106,204.682 165.122,205.713 166.122 C 207.745 168.095,212.139 171.643,215.334 173.891 C 216.030 174.381,216.780 174.982,217.000 175.228 C 217.220 175.474,218.084 176.333,218.919 177.138 C 222.435 180.522,223.868 181.952,225.030 183.238 C 227.999 186.527,227.812 186.468,234.832 186.327 C 241.849 186.186,241.993 186.139,241.085 184.302 C 240.732 183.586,239.974 181.958,239.402 180.683 C 238.404 178.462,238.235 178.307,235.280 176.913 C 233.586 176.114,231.570 175.052,230.800 174.554 C 230.030 174.056,228.874 173.520,228.231 173.364 C 227.588 173.207,226.004 172.480,224.710 171.749 C 223.416 171.018,221.604 170.216,220.682 169.968 C 219.761 169.720,218.556 169.200,218.004 168.812 C 217.452 168.424,215.740 167.530,214.200 166.825 C 212.660 166.120,210.410 165.035,209.200 164.414 C 207.621 163.603,206.762 163.375,206.156 163.608 M212.824 167.624 C 213.388 168.022,214.333 168.468,214.924 168.617 C 215.516 168.765,216.000 169.019,216.000 169.180 C 216.000 169.342,216.675 169.801,217.500 170.201 C 218.325 170.602,219.630 171.237,220.400 171.613 C 221.170 171.989,222.300 172.415,222.910 172.559 C 223.521 172.703,224.357 173.157,224.768 173.568 C 225.179 173.979,226.299 174.447,227.258 174.608 C 228.216 174.770,229.509 175.329,230.131 175.851 C 230.753 176.373,231.444 176.800,231.668 176.800 C 231.891 176.800,232.534 177.162,233.097 177.605 C 233.660 178.048,234.784 178.516,235.594 178.646 C 236.847 178.846,237.146 179.101,237.584 180.341 C 237.867 181.143,238.333 182.070,238.619 182.400 C 238.906 182.730,239.199 183.540,239.270 184.200 L 239.400 185.400 234.399 185.400 C 228.949 185.400,229.539 185.608,226.253 182.533 C 225.454 181.785,224.800 181.040,224.800 180.877 C 224.800 180.714,223.691 179.595,222.335 178.390 C 220.979 177.186,219.206 175.570,218.396 174.800 C 216.260 172.770,213.131 170.202,212.164 169.686 C 211.319 169.236,208.800 167.014,208.800 166.720 C 208.800 166.289,211.928 166.992,212.824 167.624 M82.139 186.093 C 81.635 186.900,81.634 187.583,82.137 187.488 C 82.392 187.439,82.551 187.638,82.490 187.930 C 82.430 188.221,82.565 188.345,82.790 188.206 C 83.302 187.890,83.330 186.127,82.828 185.817 C 82.623 185.691,82.313 185.815,82.139 186.093 M304.800 245.763 C 304.800 246.942,306.207 246.780,306.526 245.563 C 306.681 244.968,306.513 244.800,305.763 244.800 C 305.012 244.800,304.800 245.012,304.800 245.763 M299.200 249.400 C 299.200 249.730,299.361 250.000,299.557 250.000 C 299.754 250.000,300.018 249.730,300.145 249.400 C 300.285 249.035,300.145 248.800,299.787 248.800 C 299.464 248.800,299.200 249.070,299.200 249.400 M121.200 269.176 C 121.200 269.383,121.383 269.666,121.607 269.804 C 121.830 269.942,121.907 270.227,121.777 270.438 C 121.466 270.941,122.513 270.718,122.894 270.200 C 123.479 269.404,123.179 268.800,122.200 268.800 C 121.650 268.800,121.200 268.969,121.200 269.176 M153.467 291.067 C 152.993 291.541,153.180 291.862,154.200 292.327 C 155.120 292.747,155.200 292.704,155.200 291.791 C 155.200 290.831,154.144 290.389,153.467 291.067 M220.864 303.426 C 220.939 303.810,221.296 304.168,221.659 304.221 C 222.559 304.352,222.334 303.041,221.426 302.864 C 220.941 302.769,220.769 302.941,220.864 303.426 " stroke="none" fill="#9abcad" fill-rule="evenodd"></path></g></svg>